<svg width="163" height="128" viewBox="0 0 163 128" fill="none" xmlns="http://www.w3.org/2000/svg">
<path d="M23.969 93.5391C19.439 91.4211 15.719 89.7101 15.719 86.2481C15.719 83.6021 17.836 81.6771 22.019 81.6771C23.558 81.6771 24.816 81.8591 26.116 82.0971C26.796 82.2141 27.522 82.3141 28.121 82.3141C31.774 82.3141 33.836 80.1361 35.207 76.0021L35.774 74.3141C35.191 74.0761 29.222 71.4551 21.439 71.4551C9.057 71.4551 2.521 79.3961 2.525 87.6341C2.525 91.7911 3.826 94.8011 5.863 97.1741C8.487 100.225 12.229 102.222 15.73 103.929C20.831 106.432 25.435 108.282 25.435 111.992C25.438 115.283 22.036 117.156 17.488 117.156C11.257 117.156 5.812 113.594 5.116 113.165L0 122.754C0.91 123.268 7.499 127.451 18.343 127.451C29.898 127.443 38.648 120.819 38.648 110.625C38.647 100.482 30.537 96.7221 23.969 93.5391Z" fill="white"/>
<path d="M69.165 98.2742L90.126 72.5742H75.191L58.473 94.7522H58.223V72.5742H45.914L45.917 127.015H46.649C51.971 127.015 58.306 124.553 58.306 115.662V103.163H58.556L75.598 126.337H91.263L69.165 98.2742Z" fill="white"/>
<path d="M90.824 14.2598C86.49 15.0778 80.064 19.0118 80.085 25.9688C80.102 32.2858 85.267 36.1148 85.283 44.3928C85.308 50.6208 81.876 54.8138 78.164 57.1388C79.664 57.0058 81.307 56.9198 83.115 56.9158C86.907 56.9058 89.193 57.2678 89.335 57.2908L108.778 33.4318C103.378 25.3478 97.072 19.0748 90.824 14.2598Z" fill="white"/>
<path d="M107.156 78.6896C109.607 74.8796 109.914 68.8076 110.122 62.6226C110.351 56.8536 111.555 52.5126 119.273 52.4856C120.983 52.4796 122.612 52.7146 125.562 52.7066C136.868 52.6566 144.25 48.7636 148.842 46.2086C139.46 40.2266 125.766 34.1186 108.777 33.4316C107.67 36.5546 99.06 60.4946 98.409 62.4266C98.507 62.5426 100.015 64.2326 101.898 67.5286C104.676 72.0556 106.167 75.8906 107.156 78.6896Z" fill="white"/>
<path d="M66.089 59.136C65.106 59.142 64.617 58.489 64.484 57.356C64.359 56.231 59.496 11.744 58.772 5.01102C58.667 4.02802 58.423 2.22302 58.42 1.58002C58.418 0.543021 59.093 0.00202058 59.889 2.0581e-05C62.193 -0.00897942 74.749 2.93202 88.074 12.271C84.235 13.354 77.29 17.347 77.322 25.615C77.347 32.933 82.587 36.961 82.614 44.303C82.654 56.243 68.931 59.131 66.089 59.136Z" fill="white"/>
<path d="M108.273 81.865C108.482 82.419 108.679 82.885 108.877 83.211C109.183 83.731 109.582 83.967 110.072 83.965C110.382 83.961 110.762 83.858 111.182 83.668C112.209 83.196 152.808 64.296 158.931 61.471C159.819 61.045 161.501 60.293 162.056 59.968C162.631 59.641 162.894 59.162 162.894 58.676C162.892 58.404 162.812 58.129 162.658 57.879C161.893 56.641 157.965 52.472 151.398 47.916C146.183 50.787 138.041 55.227 125.929 55.276C122.961 55.279 122.289 55.08 120.262 55.088C114.349 55.109 112.873 57.638 112.657 62.821C112.621 63.8 112.604 65.118 112.547 66.563C112.36 71.197 111.813 77.588 108.273 81.865Z" fill="white"/>
</svg>
