<svg width="780" height="628" viewBox="0 0 780 628" fill="none" xmlns="http://www.w3.org/2000/svg">
<path d="M241.927 106.53C209.57 112.641 161.594 142.03 161.75 194.002C161.877 241.193 200.439 269.798 200.558 331.639C200.745 378.165 175.122 409.489 147.408 426.858C158.607 425.865 170.874 425.222 184.372 425.192C212.683 425.118 229.75 427.822 230.811 427.994L375.971 249.755C335.655 189.363 288.575 142.5 241.927 106.53Z" fill="#3D8EFF"/>
<path d="M363.862 587.855C382.161 559.393 384.453 514.032 386.006 467.826C387.715 424.729 396.704 392.299 454.327 392.098C467.094 392.053 479.256 393.808 501.28 393.749C585.69 393.375 640.804 364.292 675.088 345.205C605.042 300.517 502.803 254.887 375.964 249.754C367.699 273.085 303.417 451.929 298.557 466.362C299.288 467.229 310.547 479.854 324.605 504.477C345.346 538.296 356.478 566.945 363.862 587.855Z" fill="#3D8EFF"/>
<path d="M57.2566 441.777C49.9175 441.822 46.2667 436.943 45.2737 428.479C44.3405 420.075 8.03343 87.7339 2.62806 37.4349C1.84414 30.0914 0.022431 16.6071 3.30974e-05 11.8036C-0.0148988 4.05665 5.02465 0.0150948 10.9676 0.000153751C28.1692 -0.0670809 121.912 21.9037 221.396 91.6709C192.734 99.7615 140.883 129.591 141.122 191.358C141.308 246.027 180.43 276.118 180.632 330.967C180.93 420.165 78.4749 441.74 57.2566 441.777Z" fill="#003989"/>
<path d="M372.201 611.574C373.762 615.713 375.232 619.194 376.711 621.63C378.995 625.514 381.974 627.277 385.632 627.262C387.947 627.232 390.784 626.463 393.92 625.044C401.587 621.517 704.698 480.325 750.412 459.22C757.042 456.038 769.6 450.42 773.744 447.992C778.036 445.549 780 441.971 780 438.34C779.985 436.308 779.388 434.254 778.238 432.386C772.527 423.138 743.2 391.993 694.171 357.958C655.236 379.405 594.448 412.574 504.02 412.941C481.861 412.963 476.844 411.476 461.711 411.536C417.564 411.693 406.545 430.586 404.932 469.306C404.663 476.619 404.536 486.465 404.111 497.26C402.715 531.879 398.631 579.623 372.201 611.574Z" fill="#003989"/>
</svg>
